<?xml version="1.0" encoding="UTF-8"?>
<svg width="1000px" height="1000px" viewBox="0 0 1000 1000" version="1.1" xmlns="http://www.w3.org/2000/svg" xmlns:xlink="http://www.w3.org/1999/xlink">
    <title>Group</title>
    <g id="Page-1" stroke="none" stroke-width="1" fill="none" fill-rule="evenodd">
        <g id="Group" transform="translate(0, -63)" fill="#2667F0" stroke="#1C45A8" stroke-width="20">
            <path d="M236.872854,740.036852 C236.888352,735.219288 237.031854,735.323543 237.178078,735.537451 L237.20868,735.58219 C237.354673,735.787975 237.494649,735.767682 237.503325,730.709145 L237.503181,729.575176 C237.501273,728.498903 237.494518,727.236618 237.482108,725.757333 C237.326994,707.266274 240.062558,695.181475 240.528382,684.437873 C241.216081,668.577 242.095,665.301451 245.402419,649.498624 C247.673184,638.648921 248.900121,632.833933 250.289554,627.292275 L250.471805,626.570609 C250.502367,626.450459 250.533031,626.33034 250.563808,626.210204 L250.749939,625.488786 C251.250465,623.562353 251.786513,621.606375 252.408847,619.420487 C255.014872,610.267083 257.62625,604.411875 259.415276,600.279855 C261.204301,596.147835 261.495287,594.561632 264.898568,591.469088 C268.301848,588.376543 267.072684,588.251999 271.600369,587.215614 C273.655447,586.745207 274.092308,586.779675 274.951269,586.607975 C275.984744,586.40139 279.319972,585.509115 283.176207,586.607975 C290.237508,588.62014 288.086916,589.245195 299.93071,596.026381 C305.023541,598.942291 305.665535,599.396413 306.226479,599.864917 L306.304663,599.930632 L306.384434,599.998029 C307.103851,600.605197 308.317678,601.58415 318.208349,607.571524 C325.859624,612.203267 327.8505,613.600308 329.951124,614.955069 L330.259985,615.153396 C333.214338,617.041671 336.924827,619.149216 356.89602,630.054172 C391.9332,649.185674 416.502003,662.044977 426.35105,667.120158 C432.917081,670.503612 440.126594,673.9469 447.97959,677.450023 C453.848555,680.46592 459.738017,682.795203 465.647975,684.437873 C474.512911,686.901878 478.137695,687.476069 486.362633,687.476069 C494.58757,687.476069 496.017381,687.81683 504.031017,686.26079 C509.373441,685.22343 514.552106,683.501786 519.567011,681.095858 C664.855288,605.446981 739.082813,566.861897 742.249585,565.340606 C746.999744,563.058669 755.649934,556.250291 763.573498,565.948245 C766.771602,569.862527 767.616058,571.466516 768.142908,572.632275 C768.720222,573.909696 769.708,575.612017 771.189181,580.531584 C771.705259,582.245675 772.377531,584.390998 773.321572,587.215614 C773.835048,588.751955 773.972372,589.233919 774.063229,589.706371 L774.085166,589.82489 C774.21327,590.542074 774.29864,591.433765 775.453964,596.026381 C776.077009,598.503095 776.377716,600.209166 776.587852,601.951546 L776.627455,602.289451 L776.66517,602.629562 C776.671319,602.686504 776.677405,602.743591 776.683435,602.800852 L776.719017,603.146712 C777.075278,606.688495 777.283485,611.076401 779.109492,622.458683 C780.773811,632.833099 781.430934,637.319003 781.755116,641.623496 L781.797322,642.209884 L781.835781,642.797239 C782.153949,647.901129 782.092711,653.476287 782.76502,668.943076 C783.618334,688.573999 783.622139,699.682738 783.343352,710.085439 L783.317245,711.029412 C783.312769,711.186489 783.308232,711.343458 783.303637,711.500347 L783.275372,712.440932 L783.245787,713.380889 C783.109824,717.61124 782.93663,721.862167 782.76502,726.668792 C782.129424,744.471106 782.505545,751.340456 779.109492,769.50735 C775.713439,787.674243 776.10815,786.805468 769.361417,805.661877 C762.614684,824.518286 761.975591,826.358411 751.99766,842.727864 C742.019728,859.097316 738.83782,862.877397 727.322846,874.628917 C715.807872,886.380438 714.790369,888.483294 698.992505,897.111565 C683.194641,905.739836 678.018412,907.384599 667.920518,910.479625 C665.066766,911.354307 662.792876,912.045324 660.555279,912.608537 L660.039307,912.736266 C654.537205,914.075053 649.001658,914.665491 635.325394,915.340738 C627.980039,915.703406 621.233338,915.832724 615.424936,915.838368 L614.409734,915.838102 C605.194259,915.824309 598.486389,915.503769 595.723842,915.340738 C591.153083,915.070996 588.846556,915.721557 583.843377,912.302543 C578.840197,908.883528 579.219609,910.654124 575.618439,904.099415 C572.017268,897.544705 573.764727,900.628006 571.658284,890.123715 C569.55184,879.619424 570.057398,879.340485 569.83052,868.856346 C569.728202,864.128205 569.676851,861.193642 569.669941,858.615977 L569.669491,857.622353 C569.674461,854.895175 569.730931,852.368263 569.83052,848.196616 C570.033681,839.686455 571.016499,838.62832 572.572165,830.575081 C574.127832,822.521842 576.335376,818.579495 578.055457,814.472645 C579.775538,810.365794 580.622782,809.461627 581.710985,806.269516 C582.799188,803.077406 582.817956,803.783948 582.624867,802.016043 C582.588899,801.686719 583.182853,801.740488 583.234122,801.104584 C583.346163,799.714901 582.362326,797.619389 582.015613,796.85111 C581.8394,796.460642 581.636315,796.055549 581.406358,795.635832 C580.982929,794.737701 580.576759,794.231335 580.187849,794.116734 C578.47061,793.610713 578.046009,793.455072 577.701002,793.365973 L577.593283,793.339717 C577.413445,793.298541 577.220285,793.267521 576.836948,793.205275 C576.032089,793.074584 571.807998,792.491311 569.83052,792.597636 L569.478397,792.615082 L569.12804,792.629474 L568.776117,792.641011 C568.304363,792.654579 567.819551,792.661071 567.286152,792.662622 L566.663707,792.662395 C565.082909,792.657297 563.033914,792.620897 559.777818,792.597636 C559.193156,792.59346 558.325735,792.591031 557.279111,792.589803 L556.55595,792.589155 C556.431377,792.589075 556.304876,792.589008 556.176588,792.588953 L554.136065,792.588983 C553.993466,792.589036 553.849792,792.589097 553.705183,792.589166 L552.382326,792.589983 C551.935525,792.590315 551.484153,792.590698 551.032047,792.591113 L550.127992,792.591979 C549.07477,792.593024 548.031468,792.594168 547.046811,792.595152 L546.218316,792.59595 C546.083006,792.596074 545.949177,792.596194 545.816971,792.596308 L545.044347,792.596921 C544.919201,792.59701 544.795962,792.597092 544.674772,792.597166 L539.554685,792.597084 C539.254459,792.597002 538.957699,792.596914 538.664339,792.596821 L536.94447,792.596229 C536.664453,792.596127 536.387706,792.596024 536.114165,792.595923 L533.737072,792.595102 C533.482176,792.595027 533.230288,792.594959 532.981346,792.5949 L529.459887,792.594951 C520.614754,792.598223 515.959159,792.631758 511.320583,792.819855 L510.624403,792.849244 C505.860914,793.058205 500.896119,793.436083 491.23667,794.116734 C475.173285,795.248638 466.037879,796.985261 457.38568,799.014865 L456.521832,799.218791 L455.659774,799.4246 C452.213208,800.251513 448.77521,801.121978 444.933316,802.016043 C430.846372,805.294281 427.636272,806.044501 418.126112,811.130629 C408.615952,816.216758 408.358374,816.287657 402.894746,824.49869 C399.508515,829.587699 399.113818,829.814549 398.325336,833.005638 C397.841615,834.963319 396.955952,837.489732 395.888317,844.550781 C394.083227,856.489156 393.737275,859.045174 393.727553,865.071423 L393.727608,865.656255 C393.733105,868.935059 393.821075,873.277962 393.830133,880.532153 C393.83363,883.33271 393.836254,885.965283 393.838005,888.429872 L393.838752,889.555447 C393.838866,889.741055 393.838975,889.925669 393.839078,890.109288 L393.839873,891.735029 C393.839946,891.912685 393.840013,892.089347 393.840076,892.265015 L393.840093,898.159658 C393.840032,898.31147 393.839965,898.462288 393.839893,898.612112 L393.839108,899.933693 C393.839005,900.077553 393.838897,900.220419 393.838784,900.362292 L393.838043,901.201598 C393.829884,909.613276 393.802511,914.326323 393.755926,915.340738 C393.736672,915.759995 393.734927,916.191721 393.741891,916.631919 L393.753865,917.163968 C393.761379,917.43177 393.770761,917.702046 393.780111,917.973933 L393.798205,918.519599 C393.88847,921.438548 393.830901,924.475305 391.318907,926.582062 C387.864916,929.478853 389.129206,930.245278 382.180088,931.443175 C378.405513,932.093841 376.3727,931.969555 374.869032,931.443175 C373.604397,931.000472 373.44151,931.359826 365.730212,929.012619 C358.471754,926.803249 355.294831,925.67741 352.393209,924.134317 L351.989736,923.916143 C348.300583,921.88862 344.772197,919.06426 333.439716,912.302543 C330.555084,910.581379 328.082123,909.111471 325.913897,907.813466 L325.003003,907.267472 C315.925585,901.818824 312.343432,899.41847 305.410836,893.502259 L304.717825,892.908767 C302.252285,890.79024 299.35529,888.22952 295.665927,884.958782 C285.710505,876.132983 280.718414,871.377161 276.243861,866.193311 L275.719562,865.581201 C272.497807,861.790995 269.456686,857.682662 264.898568,851.538631 C253.811253,836.593691 249.281949,829.517694 244.488537,819.637577 C239.695125,809.757461 239.230647,810.41748 237.482108,795.635832 C236.852634,790.314439 236.597422,789.395386 236.528583,788.591329 L236.518804,788.457649 C236.513391,788.368258 236.510151,788.277347 236.508825,788.179034 L236.508963,787.942857 C236.52787,786.421078 236.860429,782.746406 236.872516,762.449046 L236.872057,752.40509 C236.872001,752.130368 236.871942,751.861422 236.871881,751.598144 L236.871031,748.704011 C236.870951,748.484362 236.87087,748.269951 236.870786,748.060673 L236.87026,746.865722 C236.870169,746.676541 236.870076,746.492277 236.869981,746.312823 L236.869087,744.824706 C236.868983,744.673146 236.868878,744.526073 236.868772,744.383381 L236.86812,743.578941 C236.86801,743.453343 236.867898,743.331911 236.867785,743.214538 L236.867099,742.558147 C236.866984,742.45658 236.866867,742.358857 236.86675,742.264872 L236.866,741.84 L236.865532,742.01502 C236.863264,742.510918 236.86151,742.753334 236.86019,742.820483 L236.859,742.832 L236.858682,742.813017 L236.858108,742.744262 C236.858022,742.729619 236.857941,742.713457 236.857864,742.695881 L236.857046,742.339702 C236.857013,742.310681 236.856984,742.280784 236.856959,742.250117 L236.856975,741.529864 C236.857,741.493688 236.857028,741.457493 236.857059,741.421388 L236.857934,740.8043 C236.857998,740.773128 236.858065,740.742688 236.858135,740.713089 L236.858819,740.472279 C236.858902,740.448687 236.858986,740.426256 236.859073,740.405096 L236.859899,740.251819 C236.859996,740.23924 236.860094,740.228252 236.860194,740.218963 L236.860811,740.184469 L236.861791,740.220426 C236.861903,740.230805 236.862016,740.243418 236.86213,740.258374 L236.862821,740.377072 C236.862938,740.401826 236.863055,740.429136 236.863173,740.459111 L236.863885,740.671787 C236.864004,740.712847 236.864124,740.756786 236.864244,740.803711 L236.864964,741.12195 C236.865325,741.299844 236.865685,741.506543 236.866042,741.744943 L236.867121,741.646011 C236.868788,741.237732 236.870691,740.709071 236.872854,740.036852 Z M478.018426,197.064358 C488.782237,194.414926 487.999575,194.916373 498.725176,194.93569 C509.450776,194.955006 506.775741,195.571639 516.386815,198.28074 C522.794198,200.086808 528.579908,202.316842 533.743944,204.970842 L866.879008,360.97184 C877.082189,365.921756 883.679928,370.787284 886.672224,375.568425 C891.160668,382.740136 893.037121,384.215468 893.371467,392.597774 C893.705812,400.980079 893.822129,401.505836 888.803801,411.451695 C883.785474,421.397555 879.796019,424.634687 866.879008,431.826095 C858.267667,436.620366 741.436936,498.250391 516.386815,616.716167 C508.977047,620.162583 501.87179,621.885791 495.071043,621.885791 C488.270297,621.885791 481.16504,620.162583 473.755272,616.716167 L317.694885,527.865875 C315.001404,526.130059 313.6306,524.424985 313.582471,522.750653 C313.534343,521.076321 314.812164,519.546627 317.415936,518.161571 L532.221389,406.282072 C537.252247,404.172951 540.804875,401.537457 542.879275,398.375588 C544.39476,396.065636 544.552373,393.800262 544.40183,392.597774 C544.243278,391.331309 544.322706,391.454996 543.488297,389.860914 C542.403852,387.789155 540.069268,386.065947 536.484543,384.69129 L497.202621,369.486515 C489.991864,367.884669 484.003147,368.29013 479.23647,370.702897 C474.469793,373.115664 397.936022,411.533063 249.635156,485.955096 C245.220495,488.043531 242.276888,489.057183 240.804336,488.996051 C239.331783,488.934919 236.895695,487.921268 233.496071,485.955096 L126.30819,427.568758 C117.776804,422.342831 112.600116,417.984129 110.778127,414.492651 C108.045144,409.255433 106.425033,406.674649 106.508125,401.720639 C106.604913,396.766629 106.637976,395.933759 109.560083,389.860914 C111.508155,385.812351 117.801383,381.048188 128.439767,375.568425 L455.48461,206.795415 C463.33128,202.074332 470.842552,198.830646 478.018426,197.064358 Z" id="Combined-Shape"></path>
        </g>
    </g>
</svg>